<svg width="150" height="24" viewBox="0 0 150 24" fill="none" xmlns="http://www.w3.org/2000/svg">
<path d="M17 2V6H15C14.31 6 14 6.81 14 7.5V10H17V14H14V22H10V14H7V10H10V6C10 4.93913 10.4214 3.92172 11.1716 3.17157C11.9217 2.42143 12.9391 2 14 2H17Z" fill="#C40B0B"/>
<path d="M100.033 3H91.9672C89.2283 3 87 5.22841 87 7.96735V16.0327C87 18.7717 89.2283 21 91.9672 21H100.033C102.772 21 105 18.7716 105 16.0327V7.96735C105 5.22841 102.772 3 100.033 3ZM103.403 16.0327C103.403 17.8911 101.891 19.403 100.033 19.403H91.9672C90.1089 19.4031 88.597 17.8911 88.597 16.0327V7.96735C88.597 6.10903 90.1089 4.59705 91.9672 4.59705H100.033C101.891 4.59705 103.403 6.10903 103.403 7.96735L103.403 16.0327Z" fill="#C40B0B"/>
<path d="M96 7.36206C93.4424 7.36206 91.3618 9.44269 91.3618 12.0002C91.3618 14.5576 93.4424 16.6381 96 16.6381C98.5575 16.6381 100.638 14.5576 100.638 12.0002C100.638 9.44269 98.5575 7.36206 96 7.36206ZM96 15.041C94.3232 15.041 92.9589 13.6769 92.9589 12.0001C92.9589 10.3232 94.3231 8.959 96 8.959C97.6769 8.959 99.0411 10.3232 99.0411 12.0001C99.0411 13.6769 97.6768 15.041 96 15.041Z" fill="#C40B0B"/>
<path d="M100.833 6.00781C100.525 6.00781 100.223 6.13238 100.005 6.35065C99.787 6.56784 99.6615 6.87022 99.6615 7.17898C99.6615 7.48678 99.7871 7.78905 100.005 8.00732C100.223 8.22451 100.525 8.35015 100.833 8.35015C101.141 8.35015 101.443 8.22451 101.661 8.00732C101.879 7.78905 102.004 7.48668 102.004 7.17898C102.004 6.87022 101.879 6.56784 101.661 6.35065C101.444 6.13238 101.141 6.00781 100.833 6.00781Z" fill="#C40B0B"/>
<path d="M64.46 6C63.69 6.35 62.86 6.58 62 6.69C62.88 6.16 63.56 5.32 63.88 4.31C63.05 4.81 62.13 5.16 61.16 5.36C60.37 4.5 59.26 4 58 4C55.65 4 53.73 5.92 53.73 8.29C53.73 8.63 53.77 8.96 53.84 9.27C50.28 9.09 47.11 7.38 45 4.79C44.63 5.42 44.42 6.16 44.42 6.94C44.42 8.43 45.17 9.75 46.33 10.5C45.62 10.5 44.96 10.3 44.38 10C44.38 10 44.38 10 44.38 10.03C44.38 12.11 45.86 13.85 47.82 14.24C47.46 14.34 47.08 14.39 46.69 14.39C46.42 14.39 46.15 14.36 45.89 14.31C46.43 16 48 17.26 49.89 17.29C48.43 18.45 46.58 19.13 44.56 19.13C44.22 19.13 43.88 19.11 43.54 19.07C45.44 20.29 47.7 21 50.12 21C58 21 62.33 14.46 62.33 8.79C62.33 8.6 62.33 8.42 62.32 8.23C63.16 7.63 63.88 6.87 64.46 6Z" fill="#C40B0B"/>
<path d="M136 15L141.19 12L136 9V15ZM147.56 7.17C147.69 7.64 147.78 8.27 147.84 9.07C147.91 9.87 147.94 10.56 147.94 11.16L148 12C148 14.19 147.84 15.8 147.56 16.83C147.31 17.73 146.73 18.31 145.83 18.56C145.36 18.69 144.5 18.78 143.18 18.84C141.88 18.91 140.69 18.94 139.59 18.94L138 19C133.81 19 131.2 18.84 130.17 18.56C129.27 18.31 128.69 17.73 128.44 16.83C128.31 16.36 128.22 15.73 128.16 14.93C128.09 14.13 128.06 13.44 128.06 12.84L128 12C128 9.81 128.16 8.2 128.44 7.17C128.69 6.27 129.27 5.69 130.17 5.44C130.64 5.31 131.5 5.22 132.82 5.16C134.12 5.09 135.31 5.06 136.41 5.06L138 5C142.19 5 144.8 5.16 145.83 5.44C146.73 5.69 147.31 6.27 147.56 7.17Z" fill="#C40B0B"/>
</svg>
